<?xml version="1.0" standalone="no"?>
<!DOCTYPE svg PUBLIC "-//W3C//DTD SVG 20010904//EN"
 "http://www.w3.org/TR/2001/REC-SVG-20010904/DTD/svg10.dtd">
<svg version="1.0" xmlns="http://www.w3.org/2000/svg"
 width="160.000000pt" height="160.000000pt" viewBox="0 0 160.000000 160.000000"
 preserveAspectRatio="xMidYMid meet">

<g transform="translate(0.000000,160.000000) scale(0.100000,-0.100000)"
fill="#000000" stroke="none">
<path d="M596 819 c-15 -12 -26 -30 -26 -45 0 -31 27 -32 32 -1 2 17 11 23 35
25 28 3 33 -1 39 -22 8 -33 34 -34 34 -2 0 27 -42 66 -70 66 -10 0 -29 -9 -44
-21z"/>
<path d="M884 828 c-24 -11 -48 -54 -39 -69 11 -16 25 -10 35 17 8 20 16 25
38 22 16 -2 31 -12 37 -25 5 -13 15 -23 22 -23 22 0 14 39 -12 65 -26 27 -47
30 -81 13z"/>
</g>
</svg>
